<svg height="512" viewBox="0 0 45 58" width="512" xmlns="http://www.w3.org/2000/svg"><g id="Page-1" fill="none" fill-rule="evenodd"><g id="029---Add-Suitcase" fill-rule="nonzero"><path id="Rectangle-path" d="m6 9h4v8h-4z" fill="#95a5a5"/><path id="Rectangle-path" d="m20 9h4v8h-4z" fill="#95a5a5"/><path id="Shape" d="m10 51v5c-.0032948 1.1032019-.89679813 1.9967052-2 2h-2c-1.10320187-.0032948-1.9967052-.8967981-2-2v-5z" fill="#3f5c6c"/><path id="Shape" d="m18 52h-15c-1.65685425 0-3-1.3431458-3-3v-30c0-1.6568542 1.34314575-3 3-3h24c1.6568542 0 3 1.3431458 3 3v9z" fill="#f29c1f"/><path id="Shape" d="m11 4v5c0 .55228475-.4477153 1-1 1h-4c-.55228475 0-1-.44771525-1-1v-5z" fill="#35495e"/><path id="Shape" d="m25 4v5c0 .55228475-.4477153 1-1 1h-4c-.5522847 0-1-.44771525-1-1v-5z" fill="#35495e"/><path id="Shape" d="m28 2.5c.0021341.66369315-.2605727 1.30081863-.729877 1.77012298-.4693044.46930436-1.1064298.7320111-1.770123.72987702h-21c-1.38071187 0-2.5-1.11928813-2.5-2.5s1.11928813-2.5 2.5-2.5h21c1.3807119 0 2.5 1.11928813 2.5 2.5z" fill="#3f5c6c"/><path id="Shape" d="m45 43c0 8.2842712-6.7157288 15-15 15s-15-6.7157288-15-15 6.7157288-15 15-15c8.2831279.0027597 14.9972403 6.7168721 15 15z" fill="#4fba6f"/><path id="Shape" d="m39 41v4c0 .5522847-.4477153 1-1 1h-5v5c0 .5522847-.4477153 1-1 1h-4c-.5522847 0-1-.4477153-1-1v-5h-5c-.5522847 0-1-.4477153-1-1v-4c0-.5522847.4477153-1 1-1h5v-5c0-.5522847.4477153-1 1-1h4c.5522847 0 1 .4477153 1 1v5h5c.5522847 0 1 .4477153 1 1z" fill="#fff"/><g fill="#f9eab0"><rect id="Rectangle-path" height="6.445" rx="1" transform="matrix(.797 -.604 .604 .797 -17.314 12.219)" width="9" x="5.033" y="28.662"/><rect id="Rectangle-path" height="6" rx="1" transform="matrix(.93 -.366 .366 .93 -7.219 8.447)" width="5.3" x="15.99" y="20.238"/></g></g></g></svg>