<svg height="512" viewBox="0 0 58 50" width="512" xmlns="http://www.w3.org/2000/svg"><g id="Page-1" fill="none" fill-rule="evenodd"><g id="037---Add-Suitcase" fill-rule="nonzero"><path id="Shape" d="m35 6v6h-5v-6c0-.55228475-.4477153-1-1-1h-12c-.5522847 0-1 .44771525-1 1v6h-5v-6c0-3.3137085 2.6862915-6 6-6h12c3.3137085 0 6 2.6862915 6 6z" fill="#285680"/><path id="Shape" d="m10 40v3c-.0032948 1.1032019-.89679813 1.9967052-2 2h-3c-1.10320187-.0032948-1.9967052-.8967981-2-2v-3z" fill="#805333"/><path id="Shape" d="m45 12v4.11c-.6643133-.0712598-1.3318788-.1079759-2-.11-10.4895255.0093728-18.9906272 8.5104745-19 19-.0073418 2.0404295.3238192 4.0679459.98 6h-22.98c-1.10320187-.0032948-1.9967052-.8967981-2-2v-27c.0032948-1.1032019.89679813-1.9967052 2-2h41c1.1032019.0032948 1.9967052.8967981 2 2z" fill="#3b97d3"/><path id="Shape" d="m11 25v16h-2v-16c0-.5522847.44771525-1 1-1 .5522847 0 1 .4477153 1 1z" fill="#2980ba"/><path id="Shape" d="m11 10v5.42c0 .5522847-.4477153 1-1 1-.55228475 0-1-.4477153-1-1v-5.42z" fill="#2980ba"/><path id="Shape" d="m8 25h4c.5522847 0 1-.4477153 1-1v-5.586c-.0000566-.2651948-.1054506-.5195073-.293-.707l-2-2c-.3904999-.3903819-1.02350015-.3903819-1.414 0l-2 2c-.18754937.1874927-.29294336.4418052-.293.707v5.586c0 .5522847.44771525 1 1 1z" fill="#f9eab0"/><path id="Shape" d="m58 35c0 8.2842712-6.7157288 15-15 15s-15-6.7157288-15-15 6.7157288-15 15-15c.669087.0007836 1.3373289.0475606 2 .14 7.4435014.9983144 13.000027 7.3498505 13 14.86z" fill="#4fba6f"/><path id="Shape" d="m52 33v4c0 .5522847-.4477153 1-1 1h-5v5c0 .5522847-.4477153 1-1 1h-4c-.5522847 0-1-.4477153-1-1v-5h-5c-.5522847 0-1-.4477153-1-1v-4c0-.5522847.4477153-1 1-1h5v-5c0-.5522847.4477153-1 1-1h4c.5522847 0 1 .4477153 1 1v5h5c.5522847 0 1 .4477153 1 1z" fill="#fff"/></g></g></svg>