<svg id="Layer_1" height="512" viewBox="0 0 512 512" width="512" xmlns="http://www.w3.org/2000/svg" data-name="Layer 1"><path d="m489.92 226.44a22.11 22.11 0 0 1 6.08 15.25 22.338 22.338 0 0 1 -15.97 21.52l-231.4 69.42-.14.03a74.841 74.841 0 0 0 -145.66-4l-.14-.04a148.19 148.19 0 0 1 -34.98-27.5 12.548 12.548 0 0 1 5.55-20.61l60.02-18 110.77-33.23 94.32-28.3 26.89-8.06a122.634 122.634 0 0 1 124.66 33.52z" fill="#f8ec7d"/><path d="m338.37 200.98-94.32 28.3-95.79-133.01 24.01-7.2z" fill="#e48e66"/><path d="m248.49 332.66a76.047 76.047 0 0 1 1.55 15.27 74.888 74.888 0 1 1 -1.55-15.27z" fill="#6fe3ff"/><path d="m133.28 262.51-60.02 18-57.26-97.81 24.01-7.21z" fill="#e48e66"/><path d="m411.068 229.932a6 6 0 0 1 -1.721-11.749l52.509-15.75a6 6 0 0 1 3.448 11.494l-52.51 15.75a5.975 5.975 0 0 1 -1.726.255z" fill="#e48e66"/><path d="m215.19 341.93h-34v-34a6 6 0 0 0 -12 0v34h-34a6 6 0 0 0 0 12h34v34a6 6 0 0 0 12 0v-34h34a6 6 0 0 0 0-12z" fill="#2561a1"/><g fill="#e48e66"><path d="m358.82 250.04a4 4 0 0 1 -2.68 4.98l-13.95 4.19a3.994 3.994 0 0 1 -4.97-2.69l-5.61-18.75a4.011 4.011 0 0 1 2.69-4.99l13.94-4.19a4 4 0 0 1 4.98 2.69z"/><path d="m310.81 264.44a4.016 4.016 0 0 1 -2.69 4.99l-13.94 4.18a3.993 3.993 0 0 1 -4.98-2.69l-5.6-18.75a4 4 0 0 1 2.68-4.99l13.94-4.18a3.993 3.993 0 0 1 4.98 2.69z"/><path d="m262.79 278.84a4.014 4.014 0 0 1 -2.68 4.99l-13.95 4.18a3.993 3.993 0 0 1 -4.98-2.69l-5.6-18.75a4.018 4.018 0 0 1 2.68-4.99l13.95-4.18a4.009 4.009 0 0 1 4.98 2.69z"/></g></svg>