<?xml version="1.0" encoding="iso-8859-1"?>
<!-- Generator: Adobe Illustrator 19.0.0, SVG Export Plug-In . SVG Version: 6.00 Build 0)  -->
<svg version="1.1" id="Capa_1" xmlns="http://www.w3.org/2000/svg" xmlns:xlink="http://www.w3.org/1999/xlink" x="0px" y="0px"
	 viewBox="0 0 512 512" style="enable-background:new 0 0 512 512;" xml:space="preserve">
<ellipse transform="matrix(-0.9901 -0.1402 0.1402 -0.9901 329.7507 740.8881)" style="fill:#F04348;" cx="190.973" cy="358.829" rx="63.019" ry="63.059"/>
<path style="fill:#F7F8EB;" d="M208.745,339.544c25.592,23.599,38.384,51.365,28.573,62.016s-38.511,0.154-64.103-23.445
	s-38.384-51.365-28.573-62.016C154.454,305.448,183.154,315.944,208.745,339.544z"/>
<rect x="240.55" y="152.46" style="fill:#875450;" width="30.905" height="302.07"/>
<path style="fill:#F04348;" d="M256,42l-0.01,138.868c-0.021,0.248-0.031,0.495-0.062,0.743
	c-2.648,20.162-113.289,17.986-104.955-0.743c-11.023,11.561-36.335,15.975-59.483,15.821c-0.587,0-1.164,0-1.751-0.021
	c-0.525,0-1.051-0.01-1.566-0.031h-0.165c-0.639-0.021-1.277-0.041-1.906-0.062c-3.719-0.144-7.345-0.402-10.807-0.763
	c-0.01,0-0.01,0-0.021,0c-20.171-2.125-34.727-7.848-29.329-14.934C97.908,112.604,132.079,55.51,221.437,44.094
	c0.01,0,0.01,0,0.021-0.01c10.292-1.32,21.314-2.021,33.182-2.073C255.083,42,255.536,42,256,42z"/>
<path style="fill:#D83D49;" d="M254.64,42.01c-57.381,0.856-66.344,55.001-103.667,138.858
	c-11.023,11.561-36.335,15.975-59.483,15.821c-0.587,0-1.175,0-1.751-0.021c-0.525,0-1.051-0.01-1.566-0.031h-0.165
	c-0.639-0.021-1.277-0.041-1.906-0.062c-3.719-0.144-7.345-0.402-10.807-0.763c17.029-1.795,32.883-6.436,40.991-14.944
	c36.458-67.366,65.2-116.519,105.151-136.774c0.01,0,0.01,0,0.021-0.01C231.749,42.763,242.772,42.062,254.64,42.01z"/>
<path style="fill:#7FCBCA;" d="M256,42l-0.014,138.867c-0.014,0.253-0.028,0.491-0.056,0.743
	c-2.653,20.159-113.295,17.988-104.958-0.743c37.321-83.862,46.289-138.005,103.667-138.853C255.088,42,255.537,42,256,42z"/>
<path style="fill:#37B0AE;" d="M254.639,42.015c-0.116,0.002-0.232,0.004-0.347,0.006c-16.215,0.301-29.126,13.718-29.128,29.954
	l-0.011,108.893c-0.014,0.253-0.028,0.491-0.056,0.743c-1.023,7.772-18.099,12.222-38.218,13.686
	c29.868,2.162,67.517-2.028,69.051-13.686c0.028-0.253,0.042-0.491,0.056-0.743L256,42C255.537,42,255.088,42,254.639,42.015z"/>
<path style="fill:#FC9642;" d="M256,42l0.014,138.867c0.014,0.253,0.028,0.491,0.056,0.743
	c2.653,20.159,113.295,17.988,104.958-0.743c24.211,25.407,117.435,16.323,105.028,0.015
	C408.103,104.736,372.285,42.49,257.362,42.015C256.912,42,256.463,42,256,42z"/>
<path style="fill:#F4812C;" d="M466.056,180.882C408.103,104.736,372.284,42.49,257.361,42.015C256.912,42,256.463,42,256,42v1.656
	c92.091,10.311,126.484,68.026,179.15,137.226c5.56,7.308-10.095,13.162-31.241,15.115
	C437.251,199.09,474.154,191.527,466.056,180.882z"/>
<path style="fill:#FAD87C;" d="M256,42l0.014,138.867c0.014,0.253,0.028,0.491,0.056,0.743
	c2.653,20.159,113.295,17.988,104.958-0.743C323.707,97.006,314.739,42.862,257.361,42.015C256.912,42,256.463,42,256,42z"/>
<path style="fill:#FEBE40;" d="M361.028,180.867C323.707,97.006,314.739,42.862,257.361,42.015C256.912,42,256.463,42,256,42
	l0.001,6.836c32.716,17.069,44.443,65.077,74.239,132.031c3.517,7.902-14.139,12.857-35.929,14.431
	C326.372,197.629,366.15,192.375,361.028,180.867z"/>
<path style="fill:#DBA67F;" d="M164.482,444.222h307.851c0,0-63.892-72.301-153.926-72.301S164.482,444.222,164.482,444.222z"/>
<path style="fill:#BD8F6D;" d="M318.408,371.921c-5.368,0-10.64,0.264-15.814,0.747c81.608,7.624,138.111,71.554,138.111,71.554
	h31.629C472.333,444.222,408.442,371.921,318.408,371.921z"/>
<path style="fill:#F2C09A;" d="M22.163,444.333h307.851c0,0-63.892-46.718-153.926-46.718S22.163,444.333,22.163,444.333z"/>
<path style="fill:#875450;" d="M496.539,470H15.461C6.922,470,0,463.078,0,454.539v-0.017c0-8.539,6.922-15.461,15.461-15.461
	h481.077c8.539,0,15.461,6.922,15.461,15.461v0.017C512,463.078,505.078,470,496.539,470z"/>
<path style="fill:#784B48;" d="M496.547,439.06h-30.905c8.534,0,15.453,6.926,15.453,15.47S474.176,470,465.642,470h30.905
	c8.534,0,15.453-6.926,15.453-15.47S505.081,439.06,496.547,439.06z"/>
<g>
</g>
<g>
</g>
<g>
</g>
<g>
</g>
<g>
</g>
<g>
</g>
<g>
</g>
<g>
</g>
<g>
</g>
<g>
</g>
<g>
</g>
<g>
</g>
<g>
</g>
<g>
</g>
<g>
</g>
</svg>
