<svg height="512" viewBox="0 0 58 58" width="512" xmlns="http://www.w3.org/2000/svg"><g id="Page-1" fill="none" fill-rule="evenodd"><g id="004---Suitcases" fill-rule="nonzero"><path id="Shape" d="m12 7.73v9.27h-4v-9.27c.28754327.21945212.63830226.34011321 1 .344h2c.3616977-.00388679.7124567-.12454788 1-.344z" fill="#bdc3c7"/><path id="Shape" d="m27 7.73v9.27h-4v-9.27c.2875433.21945212.6383023.34011321 1 .344h2c.3616977-.00388679.7124567-.12454788 1-.344z" fill="#bdc3c7"/><path id="Shape" d="m9 50v6c-.0032948 1.1032019-.89679813 1.9967052-2 2h-2c-1.10320187-.0032948-1.9967052-.8967981-2-2v-6z" fill="#3f5c6c"/><path id="Shape" d="m28 2v5c0 1.1045695-.8954305 2-2 2h-2c-1.1045695 0-2-.8954305-2-2v-2h-9v2c0 1.1045695-.8954305 2-2 2h-2c-1.1045695 0-2-.8954305-2-2v-5c.0032948-1.10320187.89679813-1.9967052 2-2h17c1.1032019.0032948 1.9967052.89679813 2 2z" fill="#3b97d3"/><path id="Shape" d="m27 31-7 21h-17c-1.65685425 0-3-1.3431458-3-3v-30c0-1.6568542 1.34314575-3 3-3h29.18c.13 0 .26.01.39.02 1.4283572.2465997 2.4615232 1.5008547 2.43 2.95v3.03z" fill="#3b97d3"/><path id="Shape" d="m51 26v7h-5v-6h-14v6h-5v-7c0-2.209139 1.790861-4 4-4h16c2.209139 0 4 1.790861 4 4z" fill="#d25627"/><g fill="#285680"><path id="Shape" d="m5 48c-.55228475 0-1-.4477153-1-1v-26c0-.5522847.44771525-1 1-1s1 .4477153 1 1v26c0 .5522847-.44771525 1-1 1z"/><path id="Shape" d="m10 48c-.55228475 0-1-.4477153-1-1v-26c0-.5522847.44771525-1 1-1 .5522847 0 1 .4477153 1 1v26c0 .5522847-.4477153 1-1 1z"/><path id="Shape" d="m15 48c-.5522847 0-1-.4477153-1-1v-26c0-.5522847.4477153-1 1-1s1 .4477153 1 1v26c0 .5522847-.4477153 1-1 1z"/><path id="Shape" d="m20 28c-.5522847 0-1-.4477153-1-1v-6c0-.5522847.4477153-1 1-1s1 .4477153 1 1v6c0 .5522847-.4477153 1-1 1z"/></g><path id="Shape" d="m30 52v4c-.0032948 1.1032019-.8967981 1.9967052-2 2h-3c-1.1032019-.0032948-1.9967052-.8967981-2-2v-4z" fill="#805333"/><path id="Shape" d="m55 52v4c-.0032948 1.1032019-.8967981 1.9967052-2 2h-3c-1.1032019-.0032948-1.9967052-.8967981-2-2v-4z" fill="#805333"/><rect id="Rectangle-path" fill="#f29c1f" height="23" rx="2" width="38" x="20" y="31"/><path id="Shape" d="m24 41c-.5522847 0-1-.4477153-1-1v-5c0-.5522847.4477153-1 1-1h2c.5522847 0 1 .4477153 1 1s-.4477153 1-1 1h-1v4c0 .5522847-.4477153 1-1 1z" fill="#fff"/><path id="Rectangle-path" d="m29 31h2v23h-2z" fill="#e57e25"/><path id="Shape" d="m49 46v8h-2v-8c0-.5522847.4477153-1 1-1s1 .4477153 1 1z" fill="#e57e25"/><path id="Shape" d="m49 31v5.42c0 .5522847-.4477153 1-1 1s-1-.4477153-1-1v-5.42z" fill="#e57e25"/><path id="Shape" d="m50 46h-4c-.5522847 0-1-.4477153-1-1v-5.586c.0000566-.2651948.1054506-.5195073.293-.707l2-2c.3904999-.3903819 1.0235001-.3903819 1.414 0l2 2c.1875494.1874927.2929434.4418052.293.707v5.586c0 .5522847-.4477153 1-1 1z" fill="#f9eab0"/></g></g></svg>